<!DOCTYPE svg PUBLIC "-//W3C//DTD SVG 1.1//EN" "http://www.w3.org/Graphics/SVG/1.1/DTD/svg11.dtd">
<!-- Uploaded to: SVG Repo, www.svgrepo.com, Transformed by: SVG Repo Mixer Tools -->
<svg height="64px" width="64px" version="1.1" id="Capa_1" xmlns="http://www.w3.org/2000/svg" xmlns:xlink="http://www.w3.org/1999/xlink" viewBox="0 0 487.71 487.71" xml:space="preserve" fill="#000000" stroke="#000000" transform="rotate(45)" stroke-width="18.045454999999997">
<g id="SVGRepo_bgCarrier" stroke-width="0"/>
<g id="SVGRepo_tracerCarrier" stroke-linecap="round" stroke-linejoin="round" stroke="#CCCCCC" stroke-width="1.9508599999999998"/>
<g id="SVGRepo_iconCarrier"> <g> <g> <path style="fill:#ffffff;" d="M208.295,444.942v42.773h73.157v-43.138c82.968-15.444,148.265-81.026,163.303-164.14h41.943 v-73.157h-41.943c-15.038-83.115-80.335-148.688-163.303-164.14V0h-73.157v42.773C124.359,57.526,58.119,123.489,42.96,207.279 H1.016v73.157H42.96C58.119,364.225,124.359,430.189,208.295,444.942z M243.857,96.527c81.237,0,147.33,66.093,147.33,147.33 s-66.093,147.33-147.33,147.33s-147.33-66.093-147.33-147.33S162.62,96.527,243.857,96.527z"/> </g> </g> </g>
</svg>